<svg xmlns="http://www.w3.org/2000/svg"  viewBox="0 0 48 48" width="48px" height="48px" baseProfile="basic"><linearGradient id="Q6lzSeOzIGY4U2fxSOLK-a" x1="12.313" x2="57.894" y1="13.345" y2="39.661" gradientUnits="userSpaceOnUse"><stop offset="0" stop-color="#262626" stop-opacity="0"/><stop offset="1" stop-color="#262626" stop-opacity=".8"/></linearGradient><path fill="url(#Q6lzSeOzIGY4U2fxSOLK-a)" d="M24,44l12.017-3.433c1.194-0.341,2.055-1.383,2.164-2.621L41,6H24V44z"/><linearGradient id="Q6lzSeOzIGY4U2fxSOLK-b" x1="-1.469" x2="47.381" y1="4.531" y2="53.381" gradientUnits="userSpaceOnUse"><stop offset="0" stop-color="#262626" stop-opacity="0"/><stop offset="1" stop-color="#262626" stop-opacity=".8"/></linearGradient><path fill="url(#Q6lzSeOzIGY4U2fxSOLK-b)" d="M24,6H10.276C8.515,6,7.133,7.51,7.288,9.264L10,40l14,4V6z"/><linearGradient id="Q6lzSeOzIGY4U2fxSOLK-c" x1="12.331" x2="39.521" y1="8.831" y2="36.021" gradientUnits="userSpaceOnUse"><stop offset="0" stop-color="#262626" stop-opacity="0"/><stop offset="1" stop-color="#262626" stop-opacity=".8"/></linearGradient><polygon fill="url(#Q6lzSeOzIGY4U2fxSOLK-c)" points="33.1,14 24,14 24,18 28.9,18 28.6,22 24,22 24,26 28.4,26 28.1,30.5 24,31.9 24,36.1 31.9,33.5 32.6,22 32.6,22"/><linearGradient id="Q6lzSeOzIGY4U2fxSOLK-d" x1="2.933" x2="33.993" y1="6.633" y2="37.693" gradientUnits="userSpaceOnUse"><stop offset="0" stop-color="#262626" stop-opacity="0"/><stop offset="1" stop-color="#262626" stop-opacity=".8"/></linearGradient><path fill="url(#Q6lzSeOzIGY4U2fxSOLK-d)" d="M24,14v4h-8.9l-0.3-4H24z M19.4,22l0.2,4H24v-4H19.4z M19.8,28h-4l0.3,5.5l7.9,2.6v-4.2	l-4.1-1.4L19.8,28z"/></svg>