<svg xmlns="http://www.w3.org/2000/svg"  viewBox="0 0 48 48" width="48px" height="48px" baseProfile="basic"><linearGradient id="PB11ltc9koa7EPfzgyA3La" x1="2.869" x2="56.556" y1="11.8" y2="42.796" gradientUnits="userSpaceOnUse"><stop offset="0" stop-color="#262626" stop-opacity="0"/><stop offset="1" stop-color="#262626" stop-opacity=".8"/></linearGradient><path fill="url(#PB11ltc9koa7EPfzgyA3La)" d="M5.8,22.1C5.3,22.6,5,23.3,5,24s0.3,1.4,0.8,1.9l16.3,16.3l0,0C22.6,42.7,24,44,24,44	s1.4-1.3,1.9-1.8l16.3-16.3c0.5-0.5,0.8-1.2,0.8-1.9c0-0.7-0.3-1.4-0.8-1.9L25.9,5.8C25.4,5.3,24,4,24,4L5.8,22.1z"/><linearGradient id="PB11ltc9koa7EPfzgyA3Lb" x1="13.636" x2="34.839" y1="13.636" y2="34.839" gradientUnits="userSpaceOnUse"><stop offset="0" stop-color="#262626" stop-opacity="0"/><stop offset="1" stop-color="#262626" stop-opacity=".8"/></linearGradient><path fill="url(#PB11ltc9koa7EPfzgyA3Lb)" d="M32,20c-0.356,0-0.695,0.061-1.024,0.149c0,0,0,0,0,0l-3.125-3.125	C27.397,18.733,25.853,20,24,20c-0.732,0-1.41-0.211-2-0.555v9.11c0,0,0,0,0.001,0C20.81,29.247,20,30.523,20,32	c0,2.209,1.791,4,4,4s4-1.791,4-4c0-1.477-0.81-2.753-2.001-3.446c0,0,0,0,0.001,0v-7.726l2.149,2.148c0,0,0,0,0-0.001	C28.061,23.305,28,23.644,28,24c0,2.209,1.791,4,4,4s4-1.791,4-4C36,21.791,34.209,20,32,20z M23.321,28.068	C23.542,28.028,23.767,28,24,28s0.458,0.028,0.679,0.068C24.457,28.03,24.233,28,24,28S23.543,28.03,23.321,28.068z M22.747,28.22	c0.098-0.034,0.196-0.066,0.298-0.092C22.943,28.153,22.845,28.187,22.747,28.22z M24.955,28.128c0.101,0.026,0.2,0.059,0.298,0.092	C25.155,28.187,25.057,28.153,24.955,28.128z M30.04,20.533c-0.017,0.01-0.034,0.018-0.051,0.028	C30.006,20.551,30.023,20.542,30.04,20.533z M29.579,20.835c-0.01,0.008-0.02,0.017-0.03,0.025	C29.559,20.852,29.569,20.843,29.579,20.835z M28.561,21.989c-0.01,0.017-0.018,0.035-0.028,0.052	C28.542,22.024,28.551,22.006,28.561,21.989z M28.86,21.549c-0.008,0.01-0.017,0.019-0.024,0.03	C28.843,21.569,28.852,21.56,28.86,21.549z"/><linearGradient id="PB11ltc9koa7EPfzgyA3Lc" x1="11.809" x2="30.332" y1="3.809" y2="22.332" gradientUnits="userSpaceOnUse"><stop offset="0" stop-color="#262626" stop-opacity="0"/><stop offset="1" stop-color="#262626" stop-opacity=".8"/></linearGradient><path fill="url(#PB11ltc9koa7EPfzgyA3Lc)" d="M24,12c-0.356,0-0.695,0.061-1.024,0.149c0,0,0,0,0,0l-3.563-3.563l-2.828,2.828l3.563,3.563	C20.061,15.305,20,15.644,20,16c0,2.209,1.791,4,4,4s4-1.791,4-4C28,13.791,26.209,12,24,12z M22.04,12.533	c-0.017,0.01-0.034,0.018-0.051,0.028C22.006,12.551,22.023,12.542,22.04,12.533z M21.579,12.835c-0.01,0.008-0.02,0.017-0.03,0.025	C21.559,12.852,21.569,12.843,21.579,12.835z M20.56,13.99c-0.01,0.017-0.018,0.034-0.027,0.051	C20.542,14.023,20.551,14.006,20.56,13.99z M20.86,13.549c-0.008,0.01-0.017,0.019-0.024,0.03	C20.843,13.569,20.852,13.56,20.86,13.549z"/></svg>