<svg xmlns="http://www.w3.org/2000/svg" xmlns:xlink="http://www.w3.org/1999/xlink" viewBox="0,0,256,256" width="48px" height="48px" fill-rule="nonzero"><defs><linearGradient x1="13.543" y1="9.093" x2="60.257" y2="48.291" gradientUnits="userSpaceOnUse" id="color-1"><stop offset="0" stop-color="#d9d9d9"></stop><stop offset="1" stop-color="#262626" stop-opacity="0.8"></stop></linearGradient><linearGradient x1="0.839" y1="-20.028" x2="28.573" y2="56.171" gradientUnits="userSpaceOnUse" id="color-2"><stop offset="0" stop-color="#d9d9d9"></stop><stop offset="1" stop-color="#262626" stop-opacity="0.8"></stop></linearGradient><linearGradient x1="-3.49" y1="3.01" x2="32.571" y2="39.071" gradientUnits="userSpaceOnUse" id="color-3"><stop offset="0" stop-color="#d9d9d9"></stop><stop offset="1" stop-color="#262626" stop-opacity="0.8"></stop></linearGradient><linearGradient x1="11.78" y1="3.78" x2="45.35" y2="37.35" gradientUnits="userSpaceOnUse" id="color-4"><stop offset="0" stop-color="#d9d9d9"></stop><stop offset="1" stop-color="#262626" stop-opacity="0.8"></stop></linearGradient></defs><g fill="none" fill-rule="nonzero" stroke="none" stroke-width="1" stroke-linecap="butt" stroke-linejoin="miter" stroke-miterlimit="10" stroke-dasharray="" stroke-dashoffset="0" font-family="none" font-weight="none" font-size="none" text-anchor="none" style="mix-blend-mode: normal"><g transform="scale(5.33333,5.33333)"><path d="M41,7h-17v36l15,-4z" fill="url(#color-1)"></path><path d="M24,7h-17l2,32l15,4z" fill="url(#color-2)"></path><path d="M22,12v24l-11,-2l-0.75,-7h4l0.5,4.125l3.25,0.5v-15.625h-6l-0.375,-4z" fill="url(#color-3)"></path><path d="M26,12v13h6.75l-0.5,5.875l-6.25,1.125v4l10,-2l1,-13h-6v-5h6.625l0.375,-4z" fill="url(#color-4)"></path></g></g></svg>